<?xml version="1.0" standalone="no"?>
<!DOCTYPE svg PUBLIC "-//W3C//DTD SVG 20010904//EN"
 "http://www.w3.org/TR/2001/REC-SVG-20010904/DTD/svg10.dtd">
<svg version="1.0" xmlns="http://www.w3.org/2000/svg"
 width="648.000000pt" height="648.000000pt" viewBox="0 0 648.000000 648.000000"
 preserveAspectRatio="xMidYMid meet">
<metadata>
Created by potrace 1.16, written by Peter Selinger 2001-2019
</metadata>
<g transform="translate(0.000000,648.000000) scale(0.100000,-0.100000)"
fill="#000000" stroke="none">
<path d="M2975 6234 c-16 -2 -82 -11 -145 -20 -395 -54 -721 -166 -1105 -379
-75 -42 -258 -168 -365 -253 -120 -95 -363 -338 -462 -462 -416 -523 -638
-1131 -655 -1791 -13 -511 79 -952 293 -1394 397 -822 1135 -1414 2024 -1620
213 -50 347 -66 611 -72 391 -9 667 32 1044 155 417 137 805 382 1145 722 512
511 800 1123 871 1846 15 151 6 539 -16 694 -104 748 -500 1445 -1090 1919
-146 118 -205 158 -370 255 -326 191 -718 328 -1095 382 -109 15 -608 29 -685
18z m1250 -2514 l970 -970 -257 -257 -257 -257 -715 720 -715 719 -723 -722
c-398 -398 -728 -723 -733 -723 -6 0 -123 113 -260 250 l-250 250 980 980
c539 539 982 980 985 980 3 0 442 -436 975 -970z"/>
</g>
</svg>
